<svg width="24" height="22" viewBox="0 0 24 22" fill="none" xmlns="http://www.w3.org/2000/svg">
<path d="M12.4406 0.166895C12.1906 -0.0539227 11.8114 -0.0539227 11.5573 0.166895L0.224771 10.1662C-0.0502095 10.4078 -0.0793741 10.8328 0.166442 11.1078C0.412258 11.3828 0.833061 11.4119 1.10804 11.1661L2.66626 9.79121V17.999C2.66626 19.8405 4.15782 21.3321 5.99936 21.3321H17.9985C19.84 21.3321 21.3316 19.8405 21.3316 17.999V9.79121L22.8898 11.1661C23.1648 11.4078 23.5856 11.3828 23.8314 11.1078C24.0772 10.8328 24.0481 10.412 23.7731 10.1662L12.4406 0.166895ZM3.9995 17.999V8.61213L11.9989 1.5543L19.9984 8.61213V17.999C19.9984 19.103 19.1026 19.9988 17.9985 19.9988H15.332V13.3326C15.332 12.5952 14.7362 11.9994 13.9988 11.9994H9.99908C9.26163 11.9994 8.66584 12.5952 8.66584 13.3326V19.9988H5.99936C4.89527 19.9988 3.9995 19.103 3.9995 17.999ZM9.99908 19.9988V13.3326H13.9988V19.9988H9.99908Z" fill="black"/>
</svg>
